<?xml version="1.0" encoding="utf-8"?>
<!-- Generator: Adobe Illustrator 27.4.0, SVG Export Plug-In . SVG Version: 6.00 Build 0)  -->
<svg version="1.1" id="Layer_1" xmlns="http://www.w3.org/2000/svg" xmlns:xlink="http://www.w3.org/1999/xlink" x="0px" y="0px"
	 viewBox="0 0 384 240" style="enable-background:new 0 0 384 240;" xml:space="preserve">
<style type="text/css">
	.st0{fill:none;stroke:#FF0000;stroke-miterlimit:10;}
	.st1{fill:none;stroke:#E80000;stroke-miterlimit:10;}
	.st2{fill:none;stroke:#D10000;stroke-miterlimit:10;}
	.st3{fill:none;stroke:#B90000;stroke-miterlimit:10;}
	.st4{fill:none;stroke:#A20000;stroke-miterlimit:10;}
	.st5{fill:none;stroke:#8B0000;stroke-miterlimit:10;}
	.st6{fill:none;stroke:#740000;stroke-miterlimit:10;}
	.st7{fill:none;stroke:#5D0000;stroke-miterlimit:10;}
	.st8{fill:none;stroke:#460000;stroke-miterlimit:10;}
	.st9{fill:none;stroke:#2E0000;stroke-miterlimit:10;}
	.st10{fill:none;stroke:#170000;stroke-miterlimit:10;}
	.st11{fill:none;stroke:#000000;stroke-miterlimit:10;}
	.st12{display:none;}
	.st13{display:inline;}
</style>
<g>
	<path class="st0" d="M395.1,46.04c-54.32,24.85-115.52,49.49-183.33,71.71c-95.28,31.22-183.62,51.1-261.18,63.87"/>
	<path class="st1" d="M394.64,52.85c-17.98,6.91-37.35,13.45-58.09,20.64c-21.12,7.28-42.7,15.49-64.55,23.51
		c-18.85,6.92-38.66,14.01-59.42,21.03c-91.42,30.92-178.77,52.45-257.49,68.9"/>
	<path class="st2" d="M394.18,59.65c-17.19,5.24-36.34,9.76-57.42,15.68c-21.51,5.99-43.13,13.95-64.45,21.74
		c-18.34,6.7-37.99,13.92-58.93,21.23c-87.57,30.56-173.93,53.79-253.8,73.94"/>
	<path class="st3" d="M393.71,66.46c-16.4,3.57-35.33,6.07-56.75,10.73c-21.91,4.7-43.55,12.4-64.35,19.97
		c-17.83,6.49-37.32,13.82-58.43,21.42c-83.74,30.15-169.08,55.14-250.11,78.98"/>
	<path class="st4" d="M393.25,73.26c-15.6,1.9-34.32,2.37-56.08,5.77c-22.3,3.41-43.98,10.86-64.25,18.2
		c-17.33,6.28-36.65,13.7-57.94,21.61c-79.92,29.68-164.24,56.49-246.42,84.01"/>
	<path class="st5" d="M392.79,80.07c-14.81,0.23-33.32-1.32-55.41,0.82c-22.7,2.11-44.4,9.31-64.15,16.43
		c-16.82,6.07-35.99,13.58-57.44,21.8c-76.12,29.16-159.4,57.83-242.73,89.05"/>
	<path class="st6" d="M392.32,86.87c-14.02-1.44-32.31-5.02-54.74-4.14c-23.1,0.82-44.83,7.77-64.05,14.66
		c-16.31,5.85-35.33,13.44-56.94,21.99c-72.34,28.6-154.55,59.18-239.04,94.08"/>
	<path class="st7" d="M391.86,93.68c-13.23-3.11-31.3-8.71-54.07-9.09c-23.49-0.47-45.25,6.22-63.95,12.89
		c-15.8,5.64-34.67,13.3-56.45,22.18c-68.58,27.98-149.71,60.52-235.36,99.12"/>
	<path class="st8" d="M391.4,100.48c-12.44-4.78-30.29-12.4-53.41-14.05c-23.89-1.76-45.68,4.68-63.85,11.12
		c-15.29,5.43-34.02,13.13-55.95,22.37C153.36,147.25,73.33,181.8-13.47,224.08"/>
	<path class="st9" d="M390.93,107.29c-11.65-6.45-29.28-16.1-52.74-19c-24.28-3.06-46.1,3.13-63.75,9.35
		c-14.78,5.22-33.38,12.95-55.46,22.56C157.89,146.82,78.97,183.42-8.98,229.39"/>
	<path class="st10" d="M390.47,114.09c-10.86-8.12-28.27-19.79-52.07-23.96c-24.68-4.35-46.53,1.59-63.65,7.58
		c-14.27,5-32.76,12.74-54.96,22.75C162.39,146.36,84.62,185.03-4.49,234.69"/>
	<path class="st11" d="M390.01,120.9c-10.07-9.79-27.27-23.48-51.4-28.91c-25.08-5.64-46.96,0.04-63.54,5.81
		C228.17,114.12,127.77,164.49,0,240"/>
</g>
<g>
	<path class="st0" d="M-54.08,175.57c145.38-27.63,211.5-43.72,241.4-51.66c2.1-0.56,9.11-2.42,18.24-5.76
		c35.33-12.94,79.14-39.52,75.75-51.74c-5.15-18.59-122.37-14.66-128.72,12.87c-3.47,15.06,27,33.86,45.52,45.29
		c31.37,19.36,91.62,47.86,186.88,44.66"/>
</g>
<g class="st12">
	<g class="st13">
		<path d="M383.31,240.08c-60.91-45.99-127.05-85.03-196.58-116.03C101.21,85.92,10.65,59.91-82.43,46.74l0.14-0.99
			c93.17,13.18,183.82,39.22,269.43,77.39c69.6,31.03,135.8,70.1,196.77,116.14L383.31,240.08z"/>
	</g>
	<g class="st13">
		<path d="M383.34,234.14c-47.35-31.33-104.96-67.75-173.32-100.31c-7.36-3.51-14.94-7.01-22.51-10.42
			c-35.1-15.79-68.46-28.74-96.47-39.32C29.06,60.7-24.68,44.41-68.69,35.65l0.2-0.98c44.06,8.76,97.85,25.08,159.88,48.49
			c28.02,10.59,61.4,23.54,96.52,39.34c7.58,3.41,15.16,6.92,22.53,10.43c68.42,32.59,126.07,69.03,173.45,100.38L383.34,234.14z"/>
	</g>
	<g class="st13">
		<path d="M383.36,228.2c-8.12-4.7-16.44-9.56-24.94-14.53c-43.85-25.62-93.56-54.66-147.94-80.57c-7.12-3.4-14.6-6.87-22.22-10.33
			c-21.43-9.73-42.17-18.53-62.23-27.05c-11.06-4.69-21.51-9.13-31.97-13.67C36.04,56.92-15.22,35.24-54.95,24.56l0.26-0.97
			c39.8,10.69,91.1,32.39,149.16,57.55c10.46,4.54,20.91,8.97,31.96,13.67c20.06,8.52,40.81,17.32,62.25,27.06
			c7.62,3.46,15.1,6.94,22.23,10.34c54.42,25.93,104.14,54.98,148.01,80.6c8.5,4.97,16.82,9.82,24.94,14.53L383.36,228.2z"/>
	</g>
	<g class="st13">
		<path d="M383.39,222.26c-21.55-10.89-43.5-22.72-66.75-35.24c-33.93-18.28-69.02-37.17-105.68-54.65
			c-6.95-3.32-14.13-6.66-21.92-10.24c-11.12-5.1-22.07-9.99-32.66-14.73c-20.69-9.25-40.23-17.99-59.27-27.39
			c-18.16-8.95-34.57-17.33-50.44-25.44c-35.59-18.18-63.7-32.53-87.87-41.12l0.33-0.94c24.24,8.61,52.37,22.98,87.99,41.17
			c15.87,8.1,32.27,16.48,50.43,25.43c19.03,9.39,38.56,18.13,59.24,27.37c10.6,4.74,21.55,9.64,32.67,14.73
			c7.8,3.57,14.98,6.93,21.94,10.24c36.69,17.48,71.78,36.39,105.73,54.67c23.24,12.52,45.19,24.34,66.72,35.22L383.39,222.26z"/>
	</g>
	<g class="st13">
		<path d="M383.41,216.31c-32.96-14.48-67.12-31.93-100.15-48.8c-23.47-11.99-47.74-24.38-71.83-35.87
			c-6.52-3.11-13.6-6.43-21.63-10.15c-5.17-2.39-10.28-4.74-15.33-7.06c-26.12-12.01-50.8-23.35-74.33-36.46
			c-27.35-15.2-50.5-29.75-70.92-42.59C7.39,21.68-11.45,9.83-27.49,2.37l0.42-0.91c16.1,7.49,34.97,19.35,56.82,33.09
			c20.41,12.83,43.54,27.37,70.87,42.56c23.5,13.09,48.16,24.42,74.26,36.42c5.05,2.32,10.16,4.67,15.34,7.07
			c8.04,3.72,15.12,7.04,21.64,10.15c24.1,11.49,48.38,23.89,71.86,35.88c33.02,16.87,67.17,34.3,100.1,48.78L383.41,216.31z"/>
	</g>
	<g class="st13">
		<path d="M383.43,210.37c-43.25-16.43-85.72-37.38-126.8-57.63c-14.74-7.27-29.99-14.79-44.73-21.82
			c-7.64-3.65-15.08-7.13-21.34-10.05l-4.03-1.88c-29.49-13.77-57.34-26.79-83.37-43.05C70.83,55.79,45.26,35.69,24.7,19.55
			C9.99,7.99-2.72-2-13.77-8.74l0.52-0.85c11.1,6.78,23.83,16.78,38.57,28.36c20.53,16.13,46.09,36.21,78.37,56.33
			c25.98,16.23,53.81,29.23,83.27,42.99l4.03,1.88c6.26,2.93,13.7,6.41,21.34,10.06c14.75,7.03,30,14.55,44.74,21.82
			c41.06,20.25,83.51,41.18,126.71,57.59L383.43,210.37z"/>
	</g>
	<g class="st13">
		<path d="M383.46,204.42c-52.89-17.24-103.4-41.61-147.96-63.12c-7.83-3.78-15.53-7.5-23.12-11.12
			c-6.24-2.98-12.42-5.89-18.55-8.79l-2.49-1.18c-33.84-15.98-59.76-28.66-85.13-46.33C70.55,49.11,45.68,24.32,25.7,4.41
			C15.89-5.36,7.43-13.8-0.05-19.87l0.63-0.78c7.52,6.1,16,14.55,25.83,24.34c19.96,19.89,44.79,44.64,80.37,69.37
			c25.31,17.63,51.19,30.29,84.99,46.25l2.49,1.18c6.13,2.89,12.31,5.81,18.55,8.79c7.59,3.62,15.3,7.34,23.13,11.12
			c44.53,21.49,95.01,45.85,147.83,63.07L383.46,204.42z"/>
	</g>
	<g class="st13">
		<path d="M383.48,198.47c-62.22-17.22-116.63-43.21-164.63-66.15l-6-2.87c-3.82-1.83-7.61-3.63-11.37-5.41
			c-3.15-1.49-6.27-2.98-9.38-4.46c-30.2-14.41-57.28-27.95-82.87-47.74C71.01,42.33,47.21,11.53,29.84-10.97
			C23.71-18.9,18.42-25.75,13.66-31l0.74-0.67c4.78,5.28,10.09,12.14,16.23,20.1c17.34,22.45,41.09,53.2,79.21,82.63
			c25.51,19.73,52.54,33.24,82.68,47.63c3.11,1.48,6.23,2.97,9.38,4.46c3.76,1.79,7.55,3.59,11.37,5.41l6,2.87
			c47.96,22.91,102.32,48.89,164.46,66.08L383.48,198.47z"/>
	</g>
	<g class="st13">
		<path d="M383.5,192.52c-65.61-15.21-120.04-39.85-170.18-63.79l-6.48-3.09c-4.72-2.25-9.38-4.47-13.98-6.69
			c-27.98-13.49-55.21-27.41-80.6-49.15C71.76,35.17,50.38-2.3,36.24-27.09c-3.34-5.85-6.22-10.9-8.86-15.06l0.84-0.54
			c2.66,4.18,5.54,9.24,8.89,15.1c14.11,24.73,35.43,62.11,75.81,96.63c25.3,21.66,52.46,35.54,80.38,49.01
			c4.59,2.21,9.25,4.43,13.97,6.69l6.48,3.09c50.08,23.91,104.46,48.53,169.97,63.72L383.5,192.52z"/>
	</g>
	<g class="st13">
		<path d="M383.52,186.57c-69.1-13.17-124.57-37-169.72-58.57l-2.8-1.34c-6.02-2.88-11.71-5.59-17.37-8.35
			c-31.66-15.43-55.81-29.27-78.33-50.55C72.42,27.28,55.01-17.6,44.61-44.42c-1.25-3.22-2.43-6.26-3.5-8.9l0.93-0.38
			c1.08,2.64,2.26,5.69,3.51,8.91c10.37,26.74,27.73,71.49,70.45,111.81c22.43,21.19,46.5,34.99,78.08,50.38
			c5.66,2.76,11.34,5.47,17.36,8.35l2.8,1.34c45.09,21.54,100.49,45.34,169.48,58.49L383.52,186.57z"/>
	</g>
	<g class="st13">
		<path d="M383.54,180.62c-75.94-11.59-132.97-35.99-169.27-53.34c-6.58-3.15-13.38-6.4-19.87-9.6
			c-30.64-15.1-54.05-29.07-76.05-51.96C72.48,18.02,60.71-37.07,55.05-63.55l-0.2-0.93l0.98-0.21l0.2,0.93
			c5.64,26.39,17.37,81.3,63.03,128.78c21.9,22.79,45.23,36.7,75.78,51.76c6.49,3.2,13.29,6.45,19.86,9.59
			c36.23,17.32,93.18,41.69,168.99,53.26L383.54,180.62z"/>
	</g>
	<g class="st13">
		<path d="M383.55,174.66c-60.01-7.05-116.81-23.24-168.81-48.12c-35.41-16.94-65.99-31.58-93.36-62.88
			C80.97,17.44,70.38-37.6,68.61-75.65l1-0.05C71.37-37.81,81.92,17,122.13,63c27.23,31.15,57.73,45.74,93.04,62.64
			c51.9,24.84,108.59,41,168.5,48.03L383.55,174.66z"/>
	</g>
</g>
<g>
	<path class="st11" d="M-81.97,46.56c70.77,10.01,165.38,31.02,269.3,77.35C269.31,160.47,334.78,202.84,384,240"/>
	<path class="st10" d="M-68.2,35.48c42.92,8.44,96.03,24.06,157.88,47.85c31.51,12.12,64.62,25.38,98.21,40.62
		c5.18,2.37,10.28,4.73,15.28,7.1c74.14,35.11,135.07,71.43,180.82,103"/>
	<path class="st9" d="M-54.43,24.4c38.82,10.22,87.48,29.99,147.36,56.96c30.81,13.88,63.24,27.6,95.53,42.62
		c5.13,2.39,10.14,4.77,15.05,7.12c73.52,35.35,135.06,68.63,180.49,96.99"/>
	<path class="st8" d="M-40.66,13.31C-5.95,25.32,38.27,49.28,96.18,79.39c30.11,15.66,61.84,29.87,92.85,44.62
		c5.07,2.41,10.01,4.8,14.81,7.14c72.89,35.59,135.05,65.84,180.16,90.98"/>
	<path class="st7" d="M-26.89,2.23C3.72,16.03,43.48,44.22,99.42,77.43c29.4,17.45,60.44,32.15,90.17,46.62
		c5.02,2.44,9.87,4.84,14.57,7.16c72.27,35.83,135.03,63.04,179.83,84.98"/>
	<path class="st6" d="M-13.12-8.85c26.5,15.58,61.79,48.04,115.79,84.31c28.69,19.27,59.03,34.44,87.49,48.62
		c4.96,2.47,9.74,4.88,14.33,7.18c71.64,36.07,135.02,60.25,179.5,78.97"/>
	<path class="st5" d="M0.65-19.93c22.4,17.36,53.19,54.12,105.27,93.43c27.96,21.1,57.62,36.75,84.81,50.62
		c4.9,2.5,9.6,4.91,14.1,7.2c71.02,36.31,135.01,57.45,179.18,72.96"/>
	<path class="st4" d="M14.42-31.02c18.29,19.15,44.57,60.24,94.74,102.54c27.23,22.95,56.2,39.06,82.13,52.62
		c4.84,2.53,9.47,4.95,13.86,7.21c70.39,36.55,135,54.66,178.85,66.95"/>
	<path class="st3" d="M28.19-42.1C42.38-21.17,64.1,24.27,112.41,69.56c26.47,24.82,54.78,41.38,79.45,54.62
		c4.78,2.57,9.33,4.98,13.62,7.23c69.76,36.79,134.98,51.86,178.52,60.95"/>
	<path class="st2" d="M41.96-53.18c10.08,22.72,27.23,72.53,73.69,120.77c25.7,26.69,53.36,43.71,76.78,56.62
		c4.72,2.6,9.19,5.02,13.38,7.25c69.14,37.03,134.97,49.07,178.19,54.94"/>
	<path class="st1" d="M55.73-64.27c5.98,24.5,18.52,78.69,63.17,129.89c24.91,28.57,51.92,46.04,74.1,58.62
		c4.66,2.64,9.06,5.05,13.15,7.27c68.51,37.27,134.96,46.27,177.86,48.93"/>
	<path class="st0" d="M69.5-75.35c1.87,26.29,9.78,84.86,52.65,139c29.4,37.13,62.16,55.66,84.33,67.91
		c67.89,37.51,134.95,43.48,177.53,42.92"/>
</g>
<g>
	<path d="M201,131.78c26.28,12.76,42.48,30.18,39.44,42.45c-2.2,8.89-14.15,13.26-23.75,16.78c-13.87,5.08-30.85,7.99-46.6,7.99
		c-19.5,0-32.95-4.4-35.1-11.48C131.45,175.85,157.34,154,201,131.78 M200.99,130.67c-42.05,21.34-70.91,44.1-66.95,57.14
		c2.46,8.11,17.53,12.19,36.06,12.19c14.99,0,32.26-2.67,46.94-8.05c10.31-3.78,22.09-8.26,24.37-17.47
		C244.54,161.83,228.84,144.08,200.99,130.67L200.99,130.67z"/>
</g>
</svg>
